<mxfile host="app.diagrams.net" agent="Mozilla/5.0 (Windows NT 10.0; Win64; x64) AppleWebKit/537.36 (KHTML, like Gecko) Chrome/131.0.0.0 Safari/537.36" version="25.0.3">
  <diagram name="PÃ¡gina-1" id="6UAX2SugGV9T_HKjbnO4">
    <mxGraphModel grid="1" page="1" gridSize="10" guides="1" tooltips="1" connect="1" arrows="1" fold="1" pageScale="1" pageWidth="827" pageHeight="1169" math="0" shadow="0">
      <root>
        <mxCell id="0" />
        <mxCell id="1" parent="0" />
        <mxCell id="1P3ryVIDQoPlZ9Jtk-vD-13" style="edgeStyle=orthogonalEdgeStyle;rounded=0;orthogonalLoop=1;jettySize=auto;html=1;exitX=0.5;exitY=1;exitDx=0;exitDy=0;exitPerimeter=0;entryX=0.5;entryY=0;entryDx=0;entryDy=0;" edge="1" parent="1" source="1P3ryVIDQoPlZ9Jtk-vD-2" target="1P3ryVIDQoPlZ9Jtk-vD-4">
          <mxGeometry relative="1" as="geometry" />
        </mxCell>
        <mxCell id="1P3ryVIDQoPlZ9Jtk-vD-2" value="Inicio" style="strokeWidth=2;html=1;shape=mxgraph.flowchart.start_2;whiteSpace=wrap;" vertex="1" parent="1">
          <mxGeometry x="364" y="20" width="86" height="80" as="geometry" />
        </mxCell>
        <mxCell id="1P3ryVIDQoPlZ9Jtk-vD-3" value="Fim" style="strokeWidth=2;html=1;shape=mxgraph.flowchart.start_2;whiteSpace=wrap;" vertex="1" parent="1">
          <mxGeometry x="364" y="620" width="86" height="80" as="geometry" />
        </mxCell>
        <mxCell id="1P3ryVIDQoPlZ9Jtk-vD-14" style="edgeStyle=orthogonalEdgeStyle;rounded=0;orthogonalLoop=1;jettySize=auto;html=1;exitX=0.5;exitY=1;exitDx=0;exitDy=0;entryX=0.5;entryY=0;entryDx=0;entryDy=0;" edge="1" parent="1" source="1P3ryVIDQoPlZ9Jtk-vD-4" target="1P3ryVIDQoPlZ9Jtk-vD-7">
          <mxGeometry relative="1" as="geometry" />
        </mxCell>
        <mxCell id="1P3ryVIDQoPlZ9Jtk-vD-4" value="inteiro N1" style="shape=parallelogram;html=1;strokeWidth=2;perimeter=parallelogramPerimeter;whiteSpace=wrap;rounded=1;arcSize=12;size=0.23;" vertex="1" parent="1">
          <mxGeometry x="329.75" y="120" width="154.5" height="40" as="geometry" />
        </mxCell>
        <mxCell id="1P3ryVIDQoPlZ9Jtk-vD-15" style="edgeStyle=orthogonalEdgeStyle;rounded=0;orthogonalLoop=1;jettySize=auto;html=1;exitX=0.5;exitY=1;exitDx=0;exitDy=0;entryX=0.5;entryY=0;entryDx=0;entryDy=0;" edge="1" parent="1" source="1P3ryVIDQoPlZ9Jtk-vD-7" target="1P3ryVIDQoPlZ9Jtk-vD-8">
          <mxGeometry relative="1" as="geometry" />
        </mxCell>
        <mxCell id="1P3ryVIDQoPlZ9Jtk-vD-7" value="Inteiro N2" style="shape=parallelogram;html=1;strokeWidth=2;perimeter=parallelogramPerimeter;whiteSpace=wrap;rounded=1;arcSize=12;size=0.23;" vertex="1" parent="1">
          <mxGeometry x="329.75" y="180" width="154.5" height="40" as="geometry" />
        </mxCell>
        <mxCell id="1P3ryVIDQoPlZ9Jtk-vD-16" style="edgeStyle=orthogonalEdgeStyle;rounded=0;orthogonalLoop=1;jettySize=auto;html=1;exitX=0.5;exitY=1;exitDx=0;exitDy=0;entryX=0.5;entryY=0;entryDx=0;entryDy=0;" edge="1" parent="1" source="1P3ryVIDQoPlZ9Jtk-vD-8" target="1P3ryVIDQoPlZ9Jtk-vD-9">
          <mxGeometry relative="1" as="geometry" />
        </mxCell>
        <mxCell id="1P3ryVIDQoPlZ9Jtk-vD-8" value="Inteiro N3" style="shape=parallelogram;html=1;strokeWidth=2;perimeter=parallelogramPerimeter;whiteSpace=wrap;rounded=1;arcSize=12;size=0.23;" vertex="1" parent="1">
          <mxGeometry x="329.75" y="240" width="154.5" height="40" as="geometry" />
        </mxCell>
        <mxCell id="1P3ryVIDQoPlZ9Jtk-vD-17" style="edgeStyle=orthogonalEdgeStyle;rounded=0;orthogonalLoop=1;jettySize=auto;html=1;exitX=0.5;exitY=1;exitDx=0;exitDy=0;entryX=0.5;entryY=0;entryDx=0;entryDy=0;" edge="1" parent="1" source="1P3ryVIDQoPlZ9Jtk-vD-9" target="1P3ryVIDQoPlZ9Jtk-vD-10">
          <mxGeometry relative="1" as="geometry" />
        </mxCell>
        <mxCell id="1P3ryVIDQoPlZ9Jtk-vD-9" value="inteiro N4" style="shape=parallelogram;html=1;strokeWidth=2;perimeter=parallelogramPerimeter;whiteSpace=wrap;rounded=1;arcSize=12;size=0.23;" vertex="1" parent="1">
          <mxGeometry x="329.75" y="300" width="154.5" height="40" as="geometry" />
        </mxCell>
        <mxCell id="1P3ryVIDQoPlZ9Jtk-vD-18" style="edgeStyle=orthogonalEdgeStyle;rounded=0;orthogonalLoop=1;jettySize=auto;html=1;exitX=0.5;exitY=1;exitDx=0;exitDy=0;entryX=0.5;entryY=0;entryDx=0;entryDy=0;" edge="1" parent="1" source="1P3ryVIDQoPlZ9Jtk-vD-10" target="1P3ryVIDQoPlZ9Jtk-vD-11">
          <mxGeometry relative="1" as="geometry" />
        </mxCell>
        <mxCell id="1P3ryVIDQoPlZ9Jtk-vD-10" value="Calcule o quadrado de N1, N2, N3, N4" style="rounded=1;whiteSpace=wrap;html=1;absoluteArcSize=1;arcSize=14;strokeWidth=2;" vertex="1" parent="1">
          <mxGeometry x="287" y="370" width="240" height="50" as="geometry" />
        </mxCell>
        <mxCell id="1P3ryVIDQoPlZ9Jtk-vD-11" value="Soma dos quadrados de N1, N2, N3, N4" style="rounded=1;whiteSpace=wrap;html=1;absoluteArcSize=1;arcSize=14;strokeWidth=2;" vertex="1" parent="1">
          <mxGeometry x="287" y="440" width="240" height="50" as="geometry" />
        </mxCell>
        <mxCell id="1P3ryVIDQoPlZ9Jtk-vD-12" value="Resultado Soma" style="strokeWidth=2;html=1;shape=mxgraph.flowchart.display;whiteSpace=wrap;" vertex="1" parent="1">
          <mxGeometry x="335.5" y="510" width="143" height="85" as="geometry" />
        </mxCell>
        <mxCell id="1P3ryVIDQoPlZ9Jtk-vD-19" style="edgeStyle=orthogonalEdgeStyle;rounded=0;orthogonalLoop=1;jettySize=auto;html=1;exitX=0.5;exitY=1;exitDx=0;exitDy=0;entryX=0.5;entryY=0;entryDx=0;entryDy=0;entryPerimeter=0;" edge="1" parent="1" source="1P3ryVIDQoPlZ9Jtk-vD-11" target="1P3ryVIDQoPlZ9Jtk-vD-12">
          <mxGeometry relative="1" as="geometry" />
        </mxCell>
        <mxCell id="1P3ryVIDQoPlZ9Jtk-vD-20" style="edgeStyle=orthogonalEdgeStyle;rounded=0;orthogonalLoop=1;jettySize=auto;html=1;exitX=0.5;exitY=1;exitDx=0;exitDy=0;exitPerimeter=0;entryX=0.5;entryY=0;entryDx=0;entryDy=0;entryPerimeter=0;" edge="1" parent="1" source="1P3ryVIDQoPlZ9Jtk-vD-12" target="1P3ryVIDQoPlZ9Jtk-vD-3">
          <mxGeometry relative="1" as="geometry" />
        </mxCell>
      </root>
    </mxGraphModel>
  </diagram>
</mxfile>
